<svg width="22" height="22" viewBox="0 0 22 22" fill="none" xmlns="http://www.w3.org/2000/svg">
<ellipse cx="10.84" cy="10.8513" rx="10.8" ry="10.5319" fill="#D8BE97"/>
<path d="M20.64 10.8513C20.64 16.092 16.2763 20.3832 10.84 20.3832C5.4038 20.3832 1.04004 16.092 1.04004 10.8513C1.04004 5.61047 5.4038 1.31934 10.84 1.31934C16.2763 1.31934 20.64 5.61047 20.64 10.8513Z" fill="#D8BE97" stroke="#676767" stroke-width="2"/>
<path d="M13.2763 8.45702C13.2763 9.73193 12.2093 10.8081 10.8399 10.8081C9.47052 10.8081 8.40356 9.73193 8.40356 8.45702C8.40356 7.18211 9.47052 6.10596 10.8399 6.10596C12.2093 6.10596 13.2763 7.18211 13.2763 8.45702Z" fill="#D8BE97" stroke="#676767" stroke-width="2"/>
<path d="M4.45825 17.5536V17.5536C7.66801 13.5684 13.7055 13.4694 17.0442 17.3473L17.2219 17.5536" stroke="#676767" stroke-width="2"/>
</svg>
